<?xml version="1.0" standalone="no"?><svg xmlns="http://www.w3.org/2000/svg" viewBox="0 0 1440 320"><path fill="#1f1f1f" fill-opacity="1" d="M0,128L30,122.7C60,117,120,107,180,101.3C240,96,300,96,360,112C420,128,480,160,540,181.3C600,203,660,213,720,192C780,171,840,117,900,117.3C960,117,1020,171,1080,165.3C1140,160,1200,96,1260,101.3C1320,107,1380,181,1410,218.7L1440,256L1440,320L1410,320C1380,320,1320,320,1260,320C1200,320,1140,320,1080,320C1020,320,960,320,900,320C840,320,780,320,720,320C660,320,600,320,540,320C480,320,420,320,360,320C300,320,240,320,180,320C120,320,60,320,30,320L0,320Z"></path></svg>