<?xml version="1.0" standalone="no"?><svg xmlns="http://www.w3.org/2000/svg" viewBox="0 0 1440 320"><path fill="#1f1f1f" fill-opacity="1" d="M0,64L30,74.7C60,85,120,107,180,112C240,117,300,107,360,90.7C420,75,480,53,540,80C600,107,660,181,720,224C780,267,840,277,900,261.3C960,245,1020,203,1080,181.3C1140,160,1200,160,1260,186.7C1320,213,1380,267,1410,293.3L1440,320L1440,320L1410,320C1380,320,1320,320,1260,320C1200,320,1140,320,1080,320C1020,320,960,320,900,320C840,320,780,320,720,320C660,320,600,320,540,320C480,320,420,320,360,320C300,320,240,320,180,320C120,320,60,320,30,320L0,320Z"></path></svg>